<svg width="20" height="19" viewBox="0 0 20 19" fill="none" xmlns="http://www.w3.org/2000/svg">
<path d="M19.197 9.25641C19.197 14.0637 15.0412 18.0128 9.84848 18.0128C4.6558 18.0128 0.5 14.0637 0.5 9.25641C0.5 4.44913 4.6558 0.5 9.84848 0.5C15.0412 0.5 19.197 4.44913 19.197 9.25641Z" fill="#D03636" stroke="white"/>
<path d="M12.3075 10.2083C12.2588 10.881 12.0098 11.4105 11.5604 11.7969C11.1139 12.1834 10.5242 12.3766 9.79142 12.3766C8.98993 12.3766 8.35877 12.1075 7.89791 11.5694C7.43992 11.0284 7.21093 10.287 7.21093 9.34527V8.96314C7.21093 8.36202 7.31684 7.83247 7.52866 7.37448C7.74048 6.91649 8.04247 6.56585 8.43462 6.32254C8.82964 6.07637 9.28763 5.95328 9.80859 5.95328C10.5299 5.95328 11.111 6.1465 11.5518 6.53293C11.9926 6.91936 12.2474 7.46179 12.3161 8.16022H11.028C10.9965 7.75662 10.8834 7.46465 10.6888 7.28432C10.497 7.10112 10.2036 7.00952 9.80859 7.00952C9.37922 7.00952 9.0572 7.1641 8.84252 7.47324C8.6307 7.77952 8.52192 8.25611 8.5162 8.90302V9.37533C8.5162 10.0509 8.61782 10.5446 8.82105 10.8566C9.02714 11.1686 9.3506 11.3246 9.79142 11.3246C10.1893 11.3246 10.4856 11.2345 10.6802 11.0541C10.8777 10.8709 10.9908 10.589 11.0194 10.2083H12.3075Z" fill="white"/>
</svg>
