<svg width="20" height="19" viewBox="0 0 20 19" fill="none" xmlns="http://www.w3.org/2000/svg">
<path d="M19.197 9.25641C19.197 14.0637 15.0412 18.0128 9.84848 18.0128C4.6558 18.0128 0.5 14.0637 0.5 9.25641C0.5 4.44913 4.6558 0.5 9.84848 0.5C15.0412 0.5 19.197 4.44913 19.197 9.25641Z" fill="#EF9B1D" stroke="white"/>
<path d="M7.39985 12.2907V6.03916H9.58961C10.3482 6.03916 10.9235 6.18514 11.3157 6.47711C11.7078 6.76622 11.9039 7.19129 11.9039 7.75233C11.9039 8.05861 11.8252 8.32911 11.6677 8.56383C11.5103 8.79568 11.2913 8.966 11.0108 9.07477C11.3314 9.15492 11.5833 9.31665 11.7665 9.55995C11.9526 9.80326 12.0456 10.101 12.0456 10.453C12.0456 11.0541 11.8538 11.5093 11.4702 11.8184C11.0867 12.1276 10.5399 12.285 9.83006 12.2907H7.39985ZM8.68795 9.56854V11.2559H9.79142C10.0948 11.2559 10.331 11.1844 10.4999 11.0413C10.6716 10.8953 10.7575 10.6949 10.7575 10.4402C10.7575 9.86767 10.4612 9.57713 9.8687 9.56854H8.68795ZM8.68795 8.65829H9.64114C10.2909 8.64684 10.6158 8.38779 10.6158 7.88114C10.6158 7.59775 10.5328 7.39452 10.3668 7.27144C10.2036 7.14549 9.94456 7.08252 9.58961 7.08252H8.68795V8.65829Z" fill="white"/>
</svg>
